<svg xmlns="http://www.w3.org/2000/svg" viewBox="0 0 1200 800">
<style>
  .bg{fill:#0a0a0f}.pnl{fill:#12121a;stroke:#1a1a2e}.hdr{fill:#12121a}
  .title{font:bold 42px 'Courier New',monospace;fill:#00ff41}
  .sub{font:bold 28px 'Courier New',monospace;fill:#00d4ff}
  .txt{font:24px 'Courier New',monospace;fill:#c0c0c0}
  .dim{font:20px 'Courier New',monospace;fill:#888}
  .grn{font:bold 24px 'Courier New',monospace;fill:#00ff41}
  .red{font:bold 24px 'Courier New',monospace;fill:#ff0040}
  .cyn{font:bold 24px 'Courier New',monospace;fill:#00d4ff}
  .amb{font:bold 24px 'Courier New',monospace;fill:#ffaa00}
  .badge{stroke:#00ff41;rx:14}
</style>
<rect class="bg" width="1200" height="800"/>

<!-- Title -->
<text x="600" y="52" text-anchor="middle" class="title">Live Hacking Overview</text>
<text x="600" y="88" text-anchor="middle" class="dim">Introduction to Live Hacking</text>

  <!-- Left Panel: What is live hacking -->
  <rect x="30" y="105" width="540" height="675" class="pnl" rx="8"/>
  <text x="300" y="148" text-anchor="middle" class="sub">What Is Live Hacking?</text>
  <line x1="50" y1="163" x2="550" y2="163" stroke="#1a1a2e"/>

  <text x="55" y="205" class="txt">Modify a program</text>
  <text x="55" y="237" class="txt">WHILE it is running</text>
  <text x="55" y="269" class="txt">on real hardware</text>

  <line x1="50" y1="297" x2="550" y2="297" stroke="#1a1a2e"/>

  <text x="55" y="337" class="amb">The Train Analogy</text>
  <text x="55" y="372" class="txt">Train heading to NYC</text>
  <text x="55" y="404" class="txt">Switch the tracks</text>
  <text x="55" y="436" class="txt">while it moves</text>
  <text x="55" y="468" class="red">Now it goes to LA!</text>

  <line x1="50" y1="496" x2="550" y2="496" stroke="#1a1a2e"/>

  <text x="55" y="536" class="cyn">Why It Matters</text>
  <text x="55" y="571" class="txt">Security research</text>
  <text x="55" y="603" class="txt">Penetration testing</text>
  <text x="55" y="635" class="txt">Malware analysis</text>
  <text x="55" y="667" class="txt">Hardware debugging</text>

  <text x="300" y="740" text-anchor="middle" class="dim">No recompile needed!</text>

  <!-- Right Panel: This Week's Goal -->
  <rect x="600" y="105" width="570" height="675" class="pnl" rx="8"/>
  <text x="885" y="148" text-anchor="middle" class="sub">This Week's Goal</text>
  <line x1="620" y1="163" x2="1150" y2="163" stroke="#1a1a2e"/>

  <text x="625" y="205" class="grn">Target Program</text>
  <text x="625" y="240" class="txt">hello-world.c</text>
  <text x="625" y="272" class="txt">Prints "hello, world"</text>
  <text x="625" y="304" class="txt">in infinite loop</text>

  <line x1="620" y1="332" x2="1150" y2="332" stroke="#1a1a2e"/>

  <text x="625" y="372" class="red">Our Mission</text>
  <text x="625" y="407" class="txt">Make it print</text>
  <text x="625" y="439" class="txt">something ELSE</text>
  <text x="625" y="471" class="txt">without changing</text>
  <text x="625" y="503" class="txt">the source code</text>

  <line x1="620" y1="531" x2="1150" y2="531" stroke="#1a1a2e"/>

  <text x="625" y="571" class="amb">Tools Used</text>
  <text x="625" y="606" class="txt">GDB  = live debug</text>
  <text x="625" y="638" class="txt">OpenOCD = HW bridge</text>
  <text x="625" y="670" class="txt">Ghidra = analysis</text>

  <text x="885" y="745" text-anchor="middle" class="dim">Hack the running binary</text>
</svg>