<svg xmlns="http://www.w3.org/2000/svg" viewBox="0 0 1200 800">
<style>
  .bg{fill:#0a0a0f}.pnl{fill:#12121a;stroke:#1a1a2e}.hdr{fill:#12121a}
  .title{font:bold 42px 'Courier New',monospace;fill:#00ff41}
  .sub{font:bold 28px 'Courier New',monospace;fill:#00d4ff}
  .txt{font:24px 'Courier New',monospace;fill:#c0c0c0}
  .dim{font:20px 'Courier New',monospace;fill:#888}
  .grn{font:bold 24px 'Courier New',monospace;fill:#00ff41}
  .red{font:bold 24px 'Courier New',monospace;fill:#ff0040}
  .cyn{font:bold 24px 'Courier New',monospace;fill:#00d4ff}
  .amb{font:bold 24px 'Courier New',monospace;fill:#ffaa00}
  .badge{stroke:#00ff41;rx:14}
</style>
<rect class="bg" width="1200" height="800"/>

<!-- Title -->
<text x="600" y="52" text-anchor="middle" class="title">Assembly Analysis</text>
<text x="600" y="88" text-anchor="middle" class="dim">Key instructions in main() loop</text>

<!-- Assembly Listing -->
<rect x="40" y="110" width="700" height="490" rx="8" class="pnl"/>
<text x="390" y="148" text-anchor="middle" class="sub">Loop Body (0x10000264)</text>

<rect x="60" y="168" width="660" height="410" rx="4" fill="#0a0a0f" stroke="#1a1a2e" stroke-width="1"/>
<text x="80" y="196" class="cyn">movs r1, #0x2a</text>
<text x="420" y="196" class="dim">; reg=42</text>
<text x="80" y="226" class="txt">bl __wrap_printf</text>
<text x="420" y="226" class="dim">; print reg</text>
<text x="80" y="256" class="amb">ldrb r1, [r4]</text>
<text x="420" y="256" class="dim">; load static</text>
<text x="80" y="286" class="txt">bl __wrap_printf</text>
<text x="420" y="286" class="dim">; print s</text>
<text x="80" y="316" class="red">mov.w r1, #0xd0000000</text>
<text x="420" y="316" class="dim">; SIO base</text>
<text x="80" y="346" class="amb">ldrb r3, [r4]</text>
<text x="420" y="346" class="dim">; reload s</text>
<text x="80" y="376" class="grn">adds r3, #1</text>
<text x="420" y="376" class="dim">; s++</text>
<text x="80" y="406" class="grn">strb r3, [r4]</text>
<text x="420" y="406" class="dim">; store s</text>
<text x="80" y="436" class="cyn">ldr r3, [r1, #4]</text>
<text x="420" y="436" class="dim">; read GPIO</text>
<text x="80" y="466" class="cyn">ubfx r3, r3, #15, #1</text>
<text x="420" y="466" class="dim">; bit 15</text>
<text x="80" y="496" class="red">eor.w r3, r3, #1</text>
<text x="420" y="496" class="dim">; invert</text>
<text x="80" y="526" class="amb">mcrr 0, 4, r2, r3, cr0</text>
<text x="420" y="526" class="dim">; GPIO out</text>
<text x="80" y="556" class="cyn">b.n 0x10000264</text>
<text x="420" y="556" class="dim">; loop</text>

<!-- Key Registers -->
<rect x="780" y="110" width="380" height="220" rx="8" class="pnl"/>
<text x="970" y="148" text-anchor="middle" class="sub">Key Registers</text>

<text x="800" y="188" class="cyn">r1:</text>
<text x="860" y="188" class="txt">printf arg</text>
<text x="800" y="223" class="amb">r3:</text>
<text x="860" y="223" class="txt">temp / static</text>
<text x="800" y="258" class="grn">r4:</text>
<text x="860" y="258" class="txt">0x200005a8</text>
<text x="800" y="283" class="dim">(static var addr)</text>
<text x="800" y="308" class="red">r2:</text>
<text x="860" y="308" class="txt">LED pin (16)</text>

<!-- Key Instructions -->
<rect x="780" y="350" width="380" height="250" rx="8" class="pnl"/>
<text x="970" y="388" text-anchor="middle" class="sub">Key Patterns</text>

<text x="800" y="428" class="grn">ldrb/adds/strb</text>
<text x="800" y="453" class="dim">Load-increment-store</text>
<text x="800" y="478" class="dim">(static var update)</text>

<text x="800" y="518" class="cyn">ubfx #15, #1</text>
<text x="800" y="543" class="dim">Extract GPIO bit 15</text>

<text x="800" y="573" class="red">eor.w #1</text>
<text x="800" y="598" class="dim">Inverts (? 0 : 1)</text>

<!-- Infinite Loop -->
<rect x="40" y="620" width="1120" height="160" rx="8" class="pnl"/>
<text x="600" y="658" text-anchor="middle" class="sub">Infinite Loop</text>

<rect x="60" y="680" width="400" height="70" rx="4" fill="#0a0a0f" stroke="#00d4ff" stroke-width="1"/>
<text x="80" y="715" class="cyn">b.n 0x10000264</text>
<text x="80" y="738" class="dim">; while(true)</text>

<text x="500" y="715" class="txt">No pop/bx lr</text>
<text x="500" y="745" class="dim">main() never returns</text>
</svg>